<?xml version="1.0" standalone="no"?>
<!DOCTYPE svg PUBLIC "-//W3C//DTD SVG 20010904//EN"
 "http://www.w3.org/TR/2001/REC-SVG-20010904/DTD/svg10.dtd">
<svg version="1.0" xmlns="http://www.w3.org/2000/svg"
 width="1000.000000pt" height="1000.000000pt" viewBox="0 0 1000.000000 1000.000000"
 preserveAspectRatio="xMidYMid meet">
<metadata>
Created by potrace 1.11, written by Peter Selinger 2001-2013
</metadata>
<g transform="translate(0.000000,1000.000000) scale(0.100000,-0.100000)"
fill="#000000" stroke="none">
<path d="M2367 7855 c-2 -5 -3 -221 -3 -480 l1 -470 1528 -3 1529 -2 151 -156
c84 -86 181 -187 217 -224 36 -37 175 -181 310 -320 135 -139 269 -278 299
-309 48 -50 183 -189 698 -720 l151 -156 131 135 c72 74 214 221 315 325 101
105 224 231 272 281 428 441 568 586 624 645 36 38 67 69 70 69 3 0 5 -679 4
-1510 l-1 -1510 482 0 482 0 0 2205 0 2205 -481 0 -482 0 -180 -183 c-174
-179 -573 -590 -724 -747 -41 -43 -173 -179 -293 -303 l-219 -226 -35 37 c-20
20 -143 147 -273 282 -131 135 -270 279 -310 320 -40 41 -181 187 -314 324
-132 136 -296 305 -363 374 l-121 127 -1731 0 c-1153 0 -1732 -3 -1734 -10z"/>
<path d="M625 5655 l0 -2205 2387 0 2388 0 0 480 0 480 -27 1 c-16 0 -873 0
-1905 1 l-1878 0 0 1724 0 1724 -483 0 -482 0 0 -2205z"/>
<path d="M2395 6192 l-30 -3 0 -479 c0 -473 0 -480 20 -481 122 -4 1927 0
1932 5 8 8 10 935 2 948 -5 7 -314 11 -950 12 -519 0 -958 0 -974 -2z"/>
</g>
</svg>
