<?xml version="1.0" standalone="no"?>
<!DOCTYPE svg PUBLIC "-//W3C//DTD SVG 20010904//EN"
 "http://www.w3.org/TR/2001/REC-SVG-20010904/DTD/svg10.dtd">
<svg version="1.0" xmlns="http://www.w3.org/2000/svg"
 width="1000.000000pt" height="1000.000000pt" viewBox="0 0 1000.000000 1000.000000"
 preserveAspectRatio="xMidYMid meet">
<metadata>
Created by potrace 1.11, written by Peter Selinger 2001-2013
</metadata>
<g transform="translate(0.000000,1000.000000) scale(0.100000,-0.100000)"
fill="#000000" stroke="none">
<path d="M620 5655 l0 -2215 2395 0 2395 0 0 490 0 490 -1905 0 -1905 0 -2
1723 -3 1722 -487 3 -488 2 0 -2215z"/>
<path d="M2360 7380 l0 -490 1533 -1 1532 0 904 -935 c497 -514 911 -934 920
-934 9 0 329 324 711 719 l695 718 3 -1509 2 -1508 485 0 485 0 0 2215 0 2215
-480 0 -481 0 -35 -32 c-20 -18 -338 -345 -707 -725 -369 -381 -674 -693 -678
-693 -4 0 -288 289 -630 643 -342 353 -659 679 -704 725 l-82 82 -1737 0
-1736 0 0 -490z"/>
<path d="M2360 5710 l0 -490 985 0 985 0 0 490 0 490 -985 0 -985 0 0 -490z"/>
</g>
</svg>
