<?xml version="1.0" standalone="no"?>
<!DOCTYPE svg PUBLIC "-//W3C//DTD SVG 20010904//EN"
 "http://www.w3.org/TR/2001/REC-SVG-20010904/DTD/svg10.dtd">
<svg version="1.0" xmlns="http://www.w3.org/2000/svg"
 width="1000.000000pt" height="1000.000000pt" viewBox="0 0 1000.000000 1000.000000"
 preserveAspectRatio="xMidYMid meet">
<metadata>
Created by potrace 1.11, written by Peter Selinger 2001-2013
</metadata>
<g transform="translate(0.000000,1000.000000) scale(0.100000,-0.100000)"
fill="#000000" stroke="none">
<path d="M4759 8549 c-672 -43 -1354 -294 -1899 -700 -784 -583 -1293 -1446
-1424 -2414 -65 -479 -26 -1003 110 -1475 298 -1030 1053 -1883 2040 -2305
214 -92 529 -188 749 -229 417 -77 913 -77 1330 0 220 41 535 137 749 229 987
422 1742 1275 2040 2305 250 867 167 1792 -235 2600 -355 713 -918 1274 -1634
1625 -579 285 -1183 405 -1826 364z m-1057 -1876 c26 -30 28 -65 12 -163 -68
-402 -272 -808 -637 -1263 -28 -34 -29 -39 -16 -53 38 -37 369 -64 548 -45
172 19 163 14 178 103 22 134 69 215 176 306 109 92 201 124 271 93 49 -21
106 -98 106 -141 0 -15 -16 -59 -35 -98 -41 -80 -126 -167 -224 -226 -33 -21
-61 -41 -61 -46 0 -14 60 -59 88 -68 15 -4 88 -7 162 -6 119 0 148 4 250 32
63 17 146 44 185 60 l70 29 46 141 c52 158 79 209 115 218 28 7 54 -10 54 -37
0 -9 -16 -84 -36 -166 -42 -169 -50 -285 -22 -291 23 -5 161 121 303 278 147
162 177 181 226 142 19 -17 23 -31 29 -119 4 -54 13 -113 21 -129 41 -85 216
-3 386 181 68 74 84 86 112 87 51 2 64 -22 54 -102 -17 -143 7 -222 85 -275
70 -48 205 -31 360 45 98 49 126 49 130 3 3 -28 -3 -37 -47 -71 -120 -95 -259
-152 -370 -152 -133 0 -222 49 -304 166 -37 54 -57 74 -73 74 -12 0 -53 -19
-90 -42 -99 -60 -220 -108 -276 -108 -55 0 -94 28 -134 96 -14 24 -34 46 -45
49 -21 7 -21 7 -239 -184 -134 -118 -185 -142 -243 -117 -50 21 -71 58 -71
123 1 36 -2 53 -10 49 -6 -2 -53 -23 -104 -46 -52 -23 -146 -56 -210 -72 -102
-27 -135 -31 -257 -32 -125 -1 -146 2 -199 23 -67 27 -143 91 -152 128 -6 21
-11 24 -33 19 -14 -3 -57 -12 -96 -20 -130 -28 -319 -38 -471 -26 -319 26
-293 26 -346 -11 -26 -19 -93 -74 -148 -124 -214 -190 -438 -339 -555 -370
-75 -19 -122 -12 -175 27 -62 44 -84 101 -78 203 14 216 171 479 329 550 58
26 68 27 158 22 72 -4 132 -16 236 -47 111 -33 151 -41 194 -37 51 4 58 7 104
57 69 75 221 281 295 400 167 268 283 569 333 865 12 75 31 120 51 128 29 12
76 6 90 -10z m3227 -1598 c16 -8 36 -30 45 -49 46 -98 -12 -176 -123 -163 -62
7 -101 50 -101 110 1 75 40 116 113 117 21 0 51 -7 66 -15z m660 0 c16 -8 36
-30 45 -49 46 -98 -12 -176 -123 -163 -62 7 -101 50 -101 110 1 75 40 116 113
117 21 0 51 -7 66 -15z m-2099 -560 l0 -255 -30 0 c-26 0 -30 4 -30 27 l0 27
-30 -29 c-41 -40 -112 -46 -159 -13 -54 36 -76 82 -76 158 0 115 64 185 162
178 32 -3 61 -12 73 -23 20 -18 20 -18 20 77 0 52 3 98 7 101 3 4 19 7 35 7
l28 0 0 -255z m808 213 c18 -18 14 -46 -7 -58 -25 -13 -48 -4 -56 21 -12 38
35 65 63 37z m-487 -141 c26 -17 39 -37 53 -80 28 -86 27 -87 -114 -87 l-120
0 0 -26 c0 -16 13 -39 35 -61 l36 -36 75 6 c72 5 75 5 72 -16 -6 -42 -152 -50
-205 -11 -56 42 -68 69 -68 154 0 64 4 84 21 107 55 74 147 96 215 50z m307
17 c16 -5 22 -13 20 -28 -3 -19 -8 -21 -59 -18 -62 4 -85 -11 -75 -51 4 -16
24 -31 66 -50 46 -22 65 -37 77 -62 20 -43 9 -90 -28 -118 -34 -25 -106 -33
-153 -17 -31 10 -36 15 -30 33 9 30 10 30 32 18 34 -18 97 -13 117 9 28 31 7
65 -58 94 -79 35 -103 79 -76 139 21 47 96 70 167 51z m182 -169 l0 -175 -30
0 -30 0 0 175 0 175 30 0 30 0 0 -175z m324 146 l24 -23 4 24 c2 17 9 23 28
23 l25 0 0 -185 c0 -204 -9 -241 -68 -284 -33 -24 -138 -34 -190 -17 -29 10
-33 15 -29 37 3 19 9 23 21 18 9 -4 44 -9 78 -12 59 -4 64 -3 93 26 25 25 30
38 30 78 l0 47 -24 -22 c-26 -24 -81 -37 -120 -27 -14 3 -41 20 -59 36 -83 73
-69 231 25 291 45 27 128 22 162 -10z m237 -6 c4 -16 7 -24 8 -17 2 21 64 52
104 52 21 0 52 -7 68 -16 47 -24 59 -66 59 -209 l0 -125 -30 0 -30 0 0 115 c0
151 -16 185 -87 185 -14 0 -37 -13 -54 -29 -29 -29 -29 -30 -29 -150 l0 -121
-35 0 -35 0 0 168 c0 93 3 172 7 176 17 17 48 0 54 -29z m-1505 -435 c8 0 14
-10 14 -25 0 -22 -4 -25 -39 -25 -47 0 -71 -26 -71 -77 0 -32 1 -33 40 -33 36
0 40 -2 40 -25 0 -22 -4 -25 -40 -25 l-40 0 0 -150 0 -150 -35 0 -35 0 0 150
0 150 -26 0 c-21 0 -25 4 -22 23 2 14 11 23 25 25 18 3 24 13 33 56 6 32 20
62 34 75 25 24 73 42 94 35 8 -2 20 -4 28 -4z m2312 -257 l2 -253 -30 0 c-26
0 -30 4 -30 26 l0 26 -31 -26 c-59 -50 -131 -47 -186 6 -73 70 -71 207 4 280
31 30 39 33 98 33 48 0 68 -5 84 -19 l21 -19 0 102 0 102 33 -3 32 -3 3 -252z
m-2048 75 c57 -39 74 -71 78 -146 2 -55 -1 -74 -20 -107 -27 -47 -94 -85 -148
-85 -55 0 -120 38 -144 85 -28 54 -28 137 0 190 42 80 161 112 234 63z m218
-9 l3 -26 29 28 c19 19 39 29 59 29 28 0 31 -3 31 -30 0 -27 -3 -30 -30 -30
-21 0 -39 -9 -55 -26 -24 -25 -25 -33 -25 -145 l0 -119 -35 0 -35 0 0 176 0
175 28 -3 c21 -2 28 -9 30 -29z m540 11 l34 -21 5 21 c4 13 14 20 30 20 l25 0
-4 -197 c-3 -225 -10 -248 -78 -283 -62 -31 -210 -22 -210 13 1 27 17 39 38
28 31 -16 124 -14 149 4 22 16 43 70 43 113 l0 23 -26 -20 c-60 -47 -154 -36
-200 25 -29 38 -41 107 -30 169 8 38 57 102 90 115 38 16 100 11 134 -10z
m415 6 c126 -53 130 -258 7 -323 -55 -29 -104 -29 -160 0 -128 64 -115 279 20
330 28 10 101 7 133 -7z m403 -2 c72 -34 106 -128 79 -219 -43 -150 -240 -170
-312 -31 -21 40 -21 132 -1 171 20 37 55 71 88 84 39 15 108 13 146 -5z m624
-268 c28 -35 -11 -93 -47 -70 -36 22 -23 84 17 84 10 0 23 -7 30 -14z"/>
<path d="M4057 5474 c-56 -38 -97 -99 -97 -146 0 -50 13 -49 92 5 66 46 125
124 115 152 -10 24 -67 18 -110 -11z"/>
<path d="M2285 5161 c-60 -27 -104 -76 -147 -167 -51 -105 -68 -198 -48 -257
13 -36 21 -43 51 -51 65 -16 197 59 388 220 119 100 181 159 181 172 0 19 -69
48 -179 76 -122 30 -191 33 -246 7z"/>
<path d="M5277 4549 c-42 -25 -62 -134 -35 -194 26 -58 103 -71 149 -26 27 27
29 35 29 106 0 67 -3 79 -25 100 -26 27 -84 34 -118 14z"/>
<path d="M5695 4561 c-26 -11 -51 -40 -59 -68 -7 -23 -6 -23 83 -23 88 0 91 1
91 23 -1 26 -17 49 -47 65 -25 14 -40 14 -68 3z"/>
<path d="M6497 4549 c-29 -17 -47 -65 -47 -124 0 -49 4 -60 29 -86 22 -21 39
-29 66 -29 27 0 44 8 66 29 27 27 29 35 29 101 0 62 -3 74 -25 95 -26 27 -84
34 -118 14z"/>
<path d="M7440 3902 c-33 -34 -46 -94 -31 -149 15 -56 43 -78 98 -78 37 0 49
5 69 28 20 24 24 39 24 93 0 97 -25 133 -93 134 -29 0 -45 -7 -67 -28z"/>
<path d="M5477 3919 c-29 -17 -47 -65 -47 -125 0 -50 3 -59 34 -90 110 -110
242 75 140 196 -21 25 -33 30 -67 30 -23 0 -50 -5 -60 -11z"/>
<path d="M6259 3917 c-25 -19 -49 -73 -49 -111 0 -73 41 -126 98 -126 72 0
107 48 100 141 -6 77 -33 109 -92 109 -23 0 -48 -6 -57 -13z"/>
<path d="M6650 3902 c-38 -38 -48 -102 -25 -159 20 -49 52 -73 98 -73 95 0
140 158 66 232 -39 40 -99 39 -139 0z"/>
<path d="M7051 3909 c-81 -76 -38 -239 64 -239 101 0 144 161 65 240 -28 28
-98 28 -129 -1z"/>
</g>
</svg>
